<?xml version="1.0" encoding="utf-8"?>
<!-- Generator: Adobe Illustrator 27.5.0, SVG Export Plug-In . SVG Version: 6.00 Build 0)  -->
<svg version="1.1" xmlns="http://www.w3.org/2000/svg" xmlns:xlink="http://www.w3.org/1999/xlink" x="0px" y="0px"
	 viewBox="0 0 500 500" style="enable-background:new 0 0 500 500;" xml:space="preserve">
<g id="BACKGROUND">
	<rect style="fill:#FFFFFF;" width="500" height="500"/>
</g>
<g id="OBJECTS">
	<g>
		<g>
			
				<text transform="matrix(1 0 0 1 133.9336 349.4715)" style="fill:#F15A22; font-family:'Gilroy-ExtraBold'; font-size:40.8862px;">local shop</text>
		</g>
		<g>
			<text transform="matrix(1 0 0 1 152.2383 376.2557)" style="fill:#414453; font-family:'Gilroy-Light'; font-size:15.548px;">– enjoy the shopping –</text>
		</g>
		<g>
			
				<circle style="fill:none;stroke:#FCAF17;stroke-width:5.3296;stroke-linecap:round;stroke-miterlimit:10;" cx="166.692" cy="237.234" r="7.25"/>
			
				<circle style="fill:none;stroke:#FCAF17;stroke-width:5.3296;stroke-linecap:round;stroke-miterlimit:10;" cx="347.308" cy="237.234" r="7.25"/>
			
				<line style="fill:none;stroke:#F15A22;stroke-width:5.3296;stroke-linecap:round;stroke-miterlimit:10;" x1="211.458" y1="190.367" x2="224.858" y2="190.367"/>
			<path style="fill:none;stroke:#F15A22;stroke-width:5.3296;stroke-linecap:round;stroke-miterlimit:10;" d="M179.892,206.189
				l-0.698-3.009c-1.519-6.552,3.456-12.813,10.182-12.813h2.329"/>
			<path style="fill:none;stroke:#F15A22;stroke-width:5.3296;stroke-linecap:round;stroke-miterlimit:10;" d="M329.376,226.598
				l-9.724,41.943c-1.098,4.737-5.319,8.091-10.182,8.091H204.53c-4.863,0-9.084-3.354-10.182-8.091l-9.725-41.948"/>
			<path style="fill:none;stroke:#F15A22;stroke-width:5.3296;stroke-linecap:round;stroke-miterlimit:10;" d="M322.283,190.367
				h2.34c6.726,0,11.701,6.26,10.182,12.813l-0.699,3.016"/>
			
				<line style="fill:none;stroke:#F15A22;stroke-width:5.3296;stroke-linecap:round;stroke-miterlimit:10;" x1="289.142" y1="190.367" x2="302.528" y2="190.367"/>
			
				<line style="fill:none;stroke:#F15A22;stroke-width:5.3296;stroke-linecap:round;stroke-miterlimit:10;" x1="166.692" y1="237.234" x2="205.049" y2="185.873"/>
			
				<line style="fill:none;stroke:#F15A22;stroke-width:5.3296;stroke-linecap:round;stroke-miterlimit:10;" x1="347.308" y1="237.234" x2="308.938" y2="185.873"/>
			<path style="fill:none;stroke:#FCAF17;stroke-width:5.3296;stroke-linecap:round;stroke-miterlimit:10;" d="M257,226.962
				l-31.177-51.526c-8.682-14.349-6.449-32.771,5.41-44.631l0,0c14.231-14.231,37.303-14.231,51.533,0l0,0
				c11.859,11.859,14.092,30.282,5.41,44.631L257,226.962z"/>
			
				<circle style="fill:none;stroke:#F15A22;stroke-width:5.3296;stroke-linecap:round;stroke-miterlimit:10;" cx="257" cy="157.5" r="12.471"/>
			
				<line style="fill:none;stroke:#F15A22;stroke-width:5.3296;stroke-linecap:round;stroke-miterlimit:10;" x1="230.262" y1="276.63" x2="211.949" y2="199.987"/>
			
				<line style="fill:none;stroke:#F15A22;stroke-width:5.3296;stroke-linecap:round;stroke-miterlimit:10;" x1="245.442" y1="276.63" x2="232.083" y2="220.716"/>
			
				<line style="fill:none;stroke:#F15A22;stroke-width:5.3296;stroke-linecap:round;stroke-miterlimit:10;" x1="214.403" y1="276.63" x2="198.636" y2="210.644"/>
			
				<line style="fill:none;stroke:#F15A22;stroke-width:5.3296;stroke-linecap:round;stroke-miterlimit:10;" x1="302.054" y1="199.987" x2="283.742" y2="276.63"/>
			
				<line style="fill:none;stroke:#F15A22;stroke-width:5.3296;stroke-linecap:round;stroke-miterlimit:10;" x1="282.831" y1="220.716" x2="269.471" y2="276.63"/>
			
				<line style="fill:none;stroke:#F15A22;stroke-width:5.3296;stroke-linecap:round;stroke-miterlimit:10;" x1="317.038" y1="210.102" x2="301.143" y2="276.63"/>
			
				<line style="fill:none;stroke:#F15A22;stroke-width:5.3296;stroke-linecap:round;stroke-miterlimit:10;" x1="190.51" y1="251.984" x2="323.445" y2="251.984"/>
			
				<line style="fill:none;stroke:#F15A22;stroke-width:5.4668;stroke-linecap:round;stroke-miterlimit:10;" x1="187.045" y1="237.234" x2="326.91" y2="237.234"/>
			
				<line style="fill:none;stroke:#F15A22;stroke-width:5.2123;stroke-linecap:round;stroke-miterlimit:10;" x1="193.402" y1="264.655" x2="320.553" y2="264.655"/>
			
				<line style="fill:none;stroke:#F15A22;stroke-width:5.3296;stroke-linecap:round;stroke-miterlimit:10;" x1="257" y1="246.234" x2="257" y2="276.633"/>
		</g>
	</g>
</g>
</svg>
